# xmcd
#
# Track frame offsets:
#   150
#   20321
#   37002
#   51929
#   72375
#   91093
#   113575
#   134107
#   155858
#   171824
#   187208
#   202821
#   223358
#   240654
#   252263
#   261572
#   277890
#   290777
#
# Disc length: 4082 seconds
#
# Revision: 0
# Processed by: cddbd v1.4PL0 Copyright (c) Steve Scherf et al.
# Submitted via: uFREEDB ActiveX Control 1.5
#
DISCID=200ff012
DTITLE=Só as Melhores - seleção
DYEAR=1989
DGENRE=Country
TTITLE0=Mmm Bop
TTITLE1=Save Me
TTITLE2=Pererê
TTITLE3=If Only
TTITLE4=Love My Grace
TTITLE5=Wheres The Love
TTITLE6=A Lenda
TTITLE7=Spanish Guitar
TTITLE8=Oops! Did It Again
TTITLE9=Stronger
TTITLE10=In The City
TTITLE11=I Will Come To You
TTITLE12=Apaixonada Por Você
TTITLE13=Tchu Tchuca
TTITLE14=A Song To Sing
TTITLE15=A Bomba
TTITLE16=Planeta Dominado
TTITLE17=O Baile Todo
EXTD=
EXTT0=
EXTT1=
EXTT2=
EXTT3=
EXTT4=
EXTT5=
EXTT6=
EXTT7=
EXTT8=
EXTT9=
EXTT10=
EXTT11=
EXTT12=
EXTT13=
EXTT14=
EXTT15=
EXTT16=
EXTT17=
PLAYORDER=
